<svg id="Ebene_1" data-name="Ebene 1" xmlns="http://www.w3.org/2000/svg" viewBox="0 0 20 20"><defs><style>.cls-1{fill:#fff;}</style></defs><title>T&amp;amp;Cs_18+_Logo_oesterreich</title><path class="cls-1" d="M10,0A10,10,0,1,0,20,10,10,10,0,0,0,10,0Zm0,19.172A9.172,9.172,0,1,1,19.172,10,9.171,9.171,0,0,1,10,19.172Zm-4.109-6.6H4.629V9.116l.012-.568.021-.62c-.21.21-.355.347-.437.412l-.686.551-.608-.759L4.854,6.6H5.891ZM9.6,6.524a2.263,2.263,0,0,1,1.381.389,1.243,1.243,0,0,1,.525,1.052,1.372,1.372,0,0,1-.253.814,2.161,2.161,0,0,1-.817.639,2.886,2.886,0,0,1,.962.749,1.4,1.4,0,0,1,.292.855,1.423,1.423,0,0,1-.576,1.182,2.4,2.4,0,0,1-1.514.447,2.533,2.533,0,0,1-1.54-.416,1.384,1.384,0,0,1-.559-1.18,1.562,1.562,0,0,1,.272-.906,2.249,2.249,0,0,1,.871-.7,2.242,2.242,0,0,1-.735-.69,1.52,1.52,0,0,1-.224-.8A1.232,1.232,0,0,1,8.218,6.92,2.254,2.254,0,0,1,9.6,6.524Zm-.931,4.457a.66.66,0,0,0,.245.548,1.045,1.045,0,0,0,.669.2,1.045,1.045,0,0,0,.7-.2.67.67,0,0,0,.233-.532.73.73,0,0,0-.231-.513,2.959,2.959,0,0,0-.749-.508Q8.672,10.37,8.671,10.981Zm.922-3.535a.785.785,0,0,0-.52.165.549.549,0,0,0-.2.443.676.676,0,0,0,.157.439,1.724,1.724,0,0,0,.57.4,1.6,1.6,0,0,0,.559-.383.7.7,0,0,0,.159-.454.541.541,0,0,0-.2-.445A.815.815,0,0,0,9.593,7.446Zm4.328,2.625h-1.58V9.177h1.58V7.585h.894V9.177H16.4v.894h-1.58v1.572h-.894Z"/></svg>