<svg id="Ebene_1" data-name="Ebene 1" xmlns="http://www.w3.org/2000/svg" viewBox="0 0 512 156">
    <defs>
        <style>.cls-1{fill:#002454;}.cls-2{fill:#fff;}</style>
    </defs>
    <title>Logo_admiral_oesterreich</title>
    <path class="cls-2"
          d="M125.869,54.9h31.962a28.861,28.861,0,0,1,10.556,1.758,19.774,19.774,0,0,1,7.388,4.882,20.391,20.391,0,0,1,4.355,7.345,28.01,28.01,0,0,1,1.451,9.148,24.864,24.864,0,0,1-1.54,8.664,20.782,20.782,0,0,1-4.661,7.389,23.059,23.059,0,0,1-7.741,5.146,27.726,27.726,0,0,1-10.775,1.934h-31ZM155.456,91.16c4.632,0,7.975-1.565,10.028-3.939a13.561,13.561,0,0,0,3.079-9.193,13.56,13.56,0,0,0-3.079-9.192,12.834,12.834,0,0,0-10.028-4.165H139.508V91.16Zm151.9,9.949H293.72V54.9H326.1q9.764,0,14.162,3.562t4.4,11.039A14.374,14.374,0,0,1,341.1,79a13.18,13.18,0,0,1-5.686,3.879l9.132,18.287H330.676l-8.452-16.642H307.352Zm17.015-26.517c2.579,0,4.322-.654,5.289-1.621a4.679,4.679,0,0,0,0-6.774q-1.45-1.451-5.321-1.451h-16.99v9.846ZM93.956,47.515H76.651l-30.487,60.97H61.407L68.891,93.4h32.9l7.535,15.064,15.194.017ZM75.057,81.21,85.318,60.7,95.683,81.21ZM386.683,54.834H370.951l-23.231,46.3h13.857l4.589-9.155h25.359l4.571,9.165,13.818-.01Zm-15.025,26.3,7.173-14.318,7.2,14.318ZM280.146,54.916H266.507v46.193h13.639ZM233.713,54.9,221.394,77.421,209.114,54.9l-19.817.01v46.13h13.639V68.288l18.458,32.862,18.4-32.741v32.7h13.64V54.916ZM429.739,96.541V47.531h-15v60.952h51.1V96.541Z"/>
</svg>